inDegrees=no
num_controls=7
num_derivatives=13
num_iterations=101
num_multipliers=7
num_parameters=0
num_slacks=7
num_states=26
objective=0.448454
objective_accelerations=0.049902
objective_balance=0.007685
objective_effort=0.037289
objective_height=0.348638
objective_ligament=0.004941
solver_duration=1453.226992
status=Solve_Succeeded
success=true
DataType=double
version=3
OpenSimVersion=4.5
endheader
time	/jointset/ground_pelvis/pelvis_tilt/value	/jointset/ground_pelvis/pelvis_tx/value	/jointset/ground_pelvis/pelvis_ty/value	/jointset/hip_l/hip_flexion_l/value	/jointset/hip_l/hip_adduction_l/value	/jointset/hip_l/hip_rotation_l/value	/jointset/back/lumbar_extension/value	/jointset/patellofemoral_l/patellar_flexion_l/value	/jointset/knee_l/knee_flexion_l/value	/jointset/knee_l/knee_adduction_l/value	/jointset/knee_l/knee_rotation_l/value	/jointset/ankle_l/ankle_angle_l/value	/jointset/subtalar_l/subtalar_angle_l/value	/jointset/ground_pelvis/pelvis_tilt/speed	/jointset/ground_pelvis/pelvis_tx/speed	/jointset/ground_pelvis/pelvis_ty/speed	/jointset/hip_l/hip_flexion_l/speed	/jointset/hip_l/hip_adduction_l/speed	/jointset/hip_l/hip_rotation_l/speed	/jointset/back/lumbar_extension/speed	/jointset/patellofemoral_l/patellar_flexion_l/speed	/jointset/knee_l/knee_flexion_l/speed	/jointset/knee_l/knee_adduction_l/speed	/jointset/knee_l/knee_rotation_l/speed	/jointset/ankle_l/ankle_angle_l/speed	/jointset/subtalar_l/subtalar_angle_l/speed	/forceset/tau_hip_flexion_l	/forceset/tau_hip_adduction_l	/forceset/tau_hip_rotation_l	/forceset/tau_knee_flexion_l	/forceset/tau_ankle_angle_l	/forceset/tau_subtalar_angle_l	/forceset/tau_lumbar_extension	lambda_cid13_p0	lambda_cid13_p1	lambda_cid13_p2	lambda_cid13_p3	lambda_cid13_p4	lambda_cid13_p5	lambda_cid14_p0	/jointset/ground_pelvis/pelvis_tilt/accel	/jointset/ground_pelvis/pelvis_tx/accel	/jointset/ground_pelvis/pelvis_ty/accel	/jointset/hip_l/hip_flexion_l/accel	/jointset/hip_l/hip_adduction_l/accel	/jointset/hip_l/hip_rotation_l/accel	/jointset/back/lumbar_extension/accel	/jointset/patellofemoral_l/patellar_flexion_l/accel	/jointset/knee_l/knee_flexion_l/accel	/jointset/knee_l/knee_adduction_l/accel	/jointset/knee_l/knee_rotation_l/accel	/jointset/ankle_l/ankle_angle_l/accel	/jointset/subtalar_l/subtalar_angle_l/accel	gamma_cid13_p0	gamma_cid13_p1	gamma_cid13_p2	gamma_cid13_p3	gamma_cid13_p4	gamma_cid13_p5	gamma_cid14_p0
0	-0.1595154693683535	0.05833245875410508	0.8979770119434823	0.3774924667018715	-0.2594532207039553	-0.2675837758184126	-0.01265067647494873	0.03223648243721637	0.03223648243721463	-0.1745327835413323	0.1693874464778795	-0.04231377076293093	-0.009640213951554764	0	0	0	0	0	0	0	0	0	0	0	0	0	0.1602995420005174	-0.07213597202389201	-0.05345716226718055	-0.322859572359159	0.3363003507420581	-0.05991543557444222	-0.1010866540640812	65.11039294559875	8.452188501726058	5.2962410026117	-10.40091956743039	-591.2276852884335	-62.12511638684562	-38.91317887773704	-4.524895022031709	-2.080351361321176	-1.104860649236963	12.48741470855658	-1.12979966711068	2.85674482894414	-5.705767209100792	8.740343656811884	8.740343656811033	0.183726423106354	0.1576469946018799	0.8852739555773426	-0.9529363747433087	-3.665786366369705e-08	5.433589019540323e-08	2.53701657483258e-08	3.851315526352362e-08	-6.680991723474194e-08	-5.746296629636261e-09	-2.888796017466808e-09
0.01	-0.1597325217406193	0.05822816210197153	0.8979228826607294	0.378102367247259	-0.2595102766786294	-0.2674407046402515	-0.01293700181855761	0.03266510443809229	0.03266510443806814	-0.174526667846822	0.1693923704567858	-0.04227325540820952	-0.009689280120133575	-0.04298710680141114	-0.02092403667782792	-0.01079715053754335	0.1214792308619855	-0.01142373601042947	0.02855541873452888	-0.05686979717402488	0.08551358452612599	0.08551358452611356	0.001127891412910146	0.000969505109931954	0.007941530942562355	-0.009863230504570063	0.1450766959074442	-0.07983158039336598	-0.04958704844468149	-0.2980849609897204	0.2969601707021907	-0.03835006124230535	-0.09019931260311681	53.27009195472621	1.370697174332735	6.183981627310052	-2.216642712952663	-591.2339887670902	-74.51747681585709	-38.92553579083154	-4.122113917870042	-2.108128056017549	-1.062849716045995	11.90304330830614	-1.150552308659247	2.846116375239581	-5.618295239396949	8.425244081324431	8.425244081323227	0.06304576337927642	0.06430816545981824	0.7243576106815043	-1.010526642894161	-5.027655696178338e-08	8.860798149312342e-08	8.64582434304672e-08	3.173213391871137e-08	-1.054740795991398e-07	1.187116295274833e-08	-1.357658188640336e-08
0.02	-0.1603667442626328	0.05791268543605892	0.8977616403805947	0.3799120333079246	-0.2596819483615383	-0.2670138440788399	-0.01378016698747528	0.03394253793036609	0.03394253793036626	-0.1745121281855912	0.1694065306660862	-0.04215817175464533	-0.009838480644674139	-0.08343402994979593	-0.04223600275581091	-0.02142259947636105	0.239953103055436	-0.02292314164686819	0.05675787665034823	-0.1113679650617957	0.169762298284714	0.1697622982846987	0.001684793345657095	0.001847246070699425	0.0149136597685592	-0.02002687119235301	0.1298538498143817	-0.08752718876283612	-0.04571693462195372	-0.2733103496203013	0.2576199906623293	-0.01678468691016616	-0.0793119711421541	41.50532983541954	-5.723060487296584	7.072584893820355	5.858882682355396	-590.0696716976352	-86.80938019533731	-38.96236071747626	-4.01685829142645	-2.157937241352178	-1.070520329491834	11.88634297484958	-1.144933592312555	2.786152665202235	-5.231441351849988	8.487369503304302	8.487369503305366	0.06952852707366362	0.1392941647689869	0.6913935322642528	-1.01301841138591	-6.389525025986971e-08	1.228800727908436e-07	1.475463211126086e-07	2.495111257389911e-08	-1.441382419635378e-07	2.948862253513293e-08	-2.42643677553399e-08
0.03	-0.1613954299461032	0.05738441834153253	0.89749494979407	0.3828906732854913	-0.2599677780114467	-0.2663076091271173	-0.01515572803601691	0.03605429990072898	0.03605429990074477	-0.1744933241509424	0.1694292382197891	-0.04197607578843938	-0.01008913269568853	-0.122113741701265	-0.06325317257853953	-0.03188675897539069	0.3551484392645412	-0.03414483029978893	0.08434520843944836	-0.1633124589709436	0.2521814360780227	0.2521814360780272	0.002113578221684679	0.002694987620058629	0.02155412217757573	-0.02999626701892088	0.1250844170701879	-0.08205434723025515	-0.04529061843227482	-0.2708077217698074	0.2576137606580664	-0.02035494420475392	-0.07504186122544669	41.40449403675743	-4.26321820176672	6.963636468463827	4.711723146390919	-590.2809084580856	-83.13982024673942	-39.02277390660979	-3.765131682457596	-2.048965354242983	-1.030078915997495	11.24214926650292	-1.096114566029577	2.72341656753801	-5.111185559101529	8.057891856652963	8.057891856654901	0.03522016019225313	0.05760312019231868	0.6576581386790096	-0.9728452669544276	-8.374890935297843e-08	1.299455159837018e-07	1.650180285015064e-07	4.623197477306084e-08	-2.632170276151778e-07	2.943408277950852e-08	-2.725908746837893e-08
0.04	-0.1628052335601797	0.05665090784847695	0.8971244745813772	0.38700247068966	-0.2603628901607331	-0.2653298222311488	-0.01703778045338137	0.03897799443690635	0.03897799443690703	-0.1744690989290403	0.1694604409829912	-0.04172611808945156	-0.01043626772470108	-0.1596576160707528	-0.08328468246165072	-0.04217952470998124	0.4665845883761241	-0.04477964152261941	0.1110682654995157	-0.2126662388262666	0.3321488114436856	0.3321488114436896	0.002769030790711312	0.003546287976337373	0.0284860063249391	-0.03932346679197633	0.1203149843259929	-0.07658150569767412	-0.04486430224275652	-0.2683050939192851	0.2576075306538066	-0.0239252014993387	-0.07077175130874314	41.37316658667899	-2.814136023428856	6.854794951710886	3.460003137927358	-589.4342995062888	-79.37326972087133	-39.10532245419525	-3.789690815030198	-1.960805253428675	-1.036241576604017	11.13450555534513	-1.02755810629451	2.613297719395688	-4.713298541084999	7.997017017775157	7.99701701777217	0.114862065673466	0.140005926152896	0.7496778799336352	-0.88457920068343	-1.037311244418608e-07	1.364499973599649e-07	1.815904292864199e-07	6.809143250921173e-08	-3.83953846736658e-07	2.90151719035128e-08	-3.009518726067779e-08
0.05	-0.164585114285179	0.05572123838342547	0.8966515821987971	0.3922117108508196	-0.2608615979803626	-0.2640889196435969	-0.01940119565082031	0.04269002893060942	0.04269002893060698	-0.1744375254970315	0.1695002556706957	-0.04140609617024682	-0.01087382821295041	-0.1961147295715892	-0.1025585334706791	-0.05239712146714472	0.5747375580192801	-0.05488811050719342	0.1369915451411837	-0.2597082986452655	0.4098869748761139	0.4098869748760911	0.003527332821609916	0.004405559883445525	0.03547687537787283	-0.04812786055224148	0.1138127516584724	-0.07443774256786398	-0.04383839506614594	-0.2624637215626703	0.2505288296664263	-0.02208294247336787	-0.065640200126489	39.26964148072739	-3.268614880961064	6.953176737267347	4.172148714239269	-588.2526953184395	-79.20915081543274	-39.20819198810528	-3.543158222671979	-1.897059667973914	-1.01432194085402	10.57679552321522	-0.9914402131624378	2.563710714194019	-4.653384399862334	7.606555184857386	7.606555184855352	0.05360235628187624	0.05719954229102663	0.6675601747367729	-0.8692949568461893	-1.164398009651048e-07	1.475996241258344e-07	2.003737895178675e-07	7.965526506970368e-08	-4.47060454761245e-07	3.354743405799548e-08	-3.306142470061568e-08
